<svg xmlns="http://www.w3.org/2000/svg" xmlns:xlink="http://www.w3.org/1999/xlink" style="margin:auto;background:#fff;display:block;shape-rendering:auto" width="200" height="200" preserveAspectRatio="xMidYMid" viewBox="0 0 100 100"><g><g><g><g transform="translate(50 50) scale(0.7) translate(-50 -50)"><animateTransform attributeName="transform" dur="0.7575757575757576s" keyTimes="0;1" repeatCount="indefinite" type="rotate" values="0 50 50;360 50 50"/><path fill="#e15b64" fill-opacity=".8" d="M50 50L50 0A50 50 0 0 1 100 50Z"/></g><g transform="translate(50 50) scale(0.7) translate(-50 -50)"><animateTransform attributeName="transform" dur="1.0101010101010102s" keyTimes="0;1" repeatCount="indefinite" type="rotate" values="0 50 50;360 50 50"/><path fill="#f47e60" fill-opacity=".8" d="M50 50L50 0A50 50 0 0 1 100 50Z" transform="rotate(90 50 50)"/></g><g transform="translate(50 50) scale(0.7) translate(-50 -50)"><animateTransform attributeName="transform" dur="1.5151515151515151s" keyTimes="0;1" repeatCount="indefinite" type="rotate" values="0 50 50;360 50 50"/><path fill="#f8b26a" fill-opacity=".8" d="M50 50L50 0A50 50 0 0 1 100 50Z" transform="rotate(180 50 50)"/></g><g transform="translate(50 50) scale(0.7) translate(-50 -50)"><animateTransform attributeName="transform" dur="3.0303030303030303s" keyTimes="0;1" repeatCount="indefinite" type="rotate" values="0 50 50;360 50 50"/><path fill="#abbd81" fill-opacity=".8" d="M50 50L50 0A50 50 0 0 1 100 50Z" transform="rotate(270 50 50)"/></g></g></g></g></svg>